<svg xmlns="http://www.w3.org/2000/svg" version="1.2" viewBox="0 0 176 176"><path d="M139.4 158.7c-3.9 2.8-8 5.3-12.3 7.5q-4 2-8.2 3.5c-9.3 3.5-19.4 5.4-29.9 5.4-47.4 0-85.9-38.5-85.9-85.9 0-8.5 1.3-16.8 3.6-24.6L13 73c-1.1 5.2-1.7 10.6-1.7 16.2 0 42.8 34.9 77.7 77.7 77.7 10.6 0 20.7-2.1 29.9-6q4.2-1.7 8.2-4v-2.3c-11.2 6.5-24.2 10.3-38.1 10.3-41.7 0-75.7-34-75.7-75.7q0-7.4 1.4-14.3l.9 1.2q-1.1 6.4-1.1 13.1c0 41.1 33.4 74.5 74.5 74.5 13.9 0 26.9-3.8 38.1-10.5V79.5l-16.2 22.3-1.8 2.5-1.8-2.5-.7-.9-15.5-21.4v45.3H78.8V62.4h15l15.3 21 15.3-21h15V145.6z"/><path d="M174.9 89.2c0 24.8-10.5 47.1-27.3 62.8v-11.8c11.9-13.6 19.1-31.5 19.1-51 0-42.9-34.8-77.7-77.7-77.7-25.6 0-48.4 12.5-62.6 31.7q-2.6 3.5-4.7 7.3l1.3 1.7c13-23.1 37.7-38.7 66-38.7 41.7 0 75.7 34 75.7 75.7 0 18.1-6.4 34.8-17.1 47.9v-1.9c9.9-12.7 15.9-28.7 15.9-46 0-41.1-33.4-74.5-74.5-74.5-28.1 0-52.5 15.6-65.2 38.5l38.5 51.4V62.4h12.3v62.4H62.3v-.1l-.2.1L10 55.4q2.7-6.3 6.4-12 2.3-3.7 4.9-7C37.1 16.2 61.5 3.3 89 3.3c47.4 0 85.9 38.5 85.9 85.9zM-38.1 203.7h5.4l-7.8 19.9h-5.4l-7.8-19.9h5.7l4.9 14.4z"/></svg>