<svg xmlns="http://www.w3.org/2000/svg" viewBox="0 0 620 145"><path d="M0-.849c-.588-.304-1.329-.609-2.22-.914-.645-.218-1.158-.413-1.519-.609a2.72 2.72 0 0 1-.929-.696 1.54 1.54 0 0 1-.38-1.045c0-.457.171-.826.531-1.088.361-.261.836-.391 1.443-.391.55 0 1.176.13 1.897.391a9.326 9.326 0 0 1 2.088 1.11l1.024-2.546A7.896 7.896 0 0 0-.304-7.812a8.146 8.146 0 0 0-2.561-.435c-.987 0-1.861.174-2.6.544-.76.37-1.348.87-1.746 1.523-.418.675-.627 1.436-.627 2.328 0 .958.209 1.72.608 2.307.398.587.892 1.044 1.461 1.327a18.47 18.47 0 0 0 2.201.892 15.24 15.24 0 0 1 1.556.588c.38.174.702.391.949.674.247.283.361.653.361 1.088 0 .544-.209.957-.608 1.262-.398.327-.967.479-1.67.479-.72 0-1.499-.196-2.333-.609A7.673 7.673 0 0 1-7.572 2.48l-1.063 2.48a8.398 8.398 0 0 0 2.581 1.763 7.122 7.122 0 0 0 3.037.675c.986 0 1.859-.175 2.637-.545.76-.369 1.367-.891 1.803-1.588.437-.674.645-1.479.645-2.415 0-.979-.208-1.762-.607-2.35A4.137 4.137 0 0 0 0-.849" transform="translate(206.382 98.793)"/><path d="M0 5.2c-.398.805-.949 1.436-1.632 1.893-.683.457-1.423.697-2.22.697-.816 0-1.557-.24-2.24-.697-.702-.457-1.252-1.088-1.651-1.893a5.617 5.617 0 0 1-.626-2.633c0-.957.209-1.827.607-2.632.399-.784.949-1.414 1.651-1.871a4.026 4.026 0 0 1 2.259-.675c.797 0 1.537.218 2.22.675A4.86 4.86 0 0 1 0-.065C.399.74.588 1.61.588 2.567.588 3.525.399 4.395 0 5.2m-.284-9.399A6.717 6.717 0 0 0-3.89-5.222a6.65 6.65 0 0 0-3.587 1.023c-1.082.674-1.935 1.61-2.562 2.806-.626 1.197-.93 2.503-.93 3.96 0 1.458.304 2.764.93 3.96.627 1.197 1.48 2.154 2.562 2.851a6.493 6.493 0 0 0 3.587 1.044A6.558 6.558 0 0 0-.284 9.378c1.081-.697 1.916-1.654 2.542-2.851.626-1.196.93-2.502.93-3.96 0-1.457-.304-2.763-.93-3.96C1.632-2.589.797-3.525-.284-4.199" transform="translate(231.912 95.812)"/><path d="M0 15.231h2.543V9.204h6.016V6.658H2.543V2.546h6.604L9.166 0H0v15.231Z" transform="translate(248.465 90.786)"/><path d="M0-10.051h4.138V2.59h2.561v-12.641h4.138v-2.59H0v2.59Z" transform="translate(269.174 103.426)"/><path d="m0 9.009-3.131-12.12h-2.505L-8.748 8.965l-3.131-12.076h-2.733l4.478 15.231h2.6L-4.441.566l3.037 11.554h2.638L5.731-3.111H3.093L0 9.009Z" transform="translate(305.956 93.896)"/><path d="m0 3.785 2.352-6.397 2.316 6.397H0Zm1.1-9.508L-4.726 9.508h2.638l1.177-3.221h6.49l1.176 3.221h2.733L3.738-5.723H1.1Z" transform="translate(326.593 96.509)"/><path d="M0 1.132h-2.999v-5.636H0c.968 0 1.688.24 2.201.696.513.457.759 1.154.759 2.089 0 .936-.246 1.654-.759 2.133C1.688.893.968 1.132 0 1.132m4.725.109c.436-.849.664-1.85.664-3.047 0-1.675-.474-2.959-1.404-3.873-.93-.914-2.259-1.37-3.985-1.37h-5.542v15.23h2.543V3.699H0c.209 0 .38 0 .474-.021l2.297 4.503h2.903L2.751 3.133a4.329 4.329 0 0 0 1.974-1.892" transform="translate(354.362 97.835)"/><path d="M0 2.481h6.452V-.065H0v-3.764h7.193v-2.546h-9.736V8.856H7.42V6.31H0V2.481Z" transform="translate(376.209 97.16)"/><path d="M0 5.221c-.36.762-.873 1.371-1.518 1.784a3.898 3.898 0 0 1-2.201.653h-3.037V-2.438h2.942c.816 0 1.574.218 2.239.631.664.435 1.177 1.045 1.556 1.806C.36.782.55 1.653.55 2.632.55 3.611.36 4.46 0 5.221m-.209-9.269c-1.043-.631-2.239-.957-3.568-.957h-5.522v15.231h5.427c1.348 0 2.562-.327 3.625-.979 1.063-.653 1.898-1.567 2.505-2.72.589-1.154.892-2.459.892-3.917 0-1.458-.303-2.785-.892-3.938a6.797 6.797 0 0 0-2.467-2.72" transform="translate(423.452 95.79)"/><path d="M0 2.481h6.452V-.065H0v-3.764h7.193v-2.546h-9.736V8.856H7.42V6.31H0V2.481Z" transform="translate(442.492 97.16)"/><path d="M0 8.747-3.909-3.242h-2.733l5.257 15.231h2.638L6.567-3.242h-2.62L0 8.747Z" transform="translate(468.666 94.028)"/><path d="M0 2.481h6.452V-.065H0v-3.764h7.193v-2.546h-9.736V8.856H7.42V6.31H0V2.481Z" transform="translate(490.59 97.16)"/><path d="M0-15.231h-2.543V0h8.274v-2.633H0v-12.598Z" transform="translate(514.26 106.017)"/><path d="M0 5.2c-.398.805-.949 1.436-1.632 1.893-.683.457-1.423.697-2.22.697-.816 0-1.557-.24-2.24-.697-.702-.457-1.252-1.088-1.651-1.893a5.617 5.617 0 0 1-.626-2.633c0-.957.209-1.827.607-2.632.399-.784.95-1.414 1.651-1.871a4.026 4.026 0 0 1 2.259-.675c.797 0 1.537.218 2.22.675A4.86 4.86 0 0 1 0-.065C.399.74.588 1.61.588 2.567.588 3.525.399 4.395 0 5.2m-.284-9.399A6.717 6.717 0 0 0-3.89-5.222a6.65 6.65 0 0 0-3.587 1.023c-1.082.674-1.935 1.61-2.562 2.806-.626 1.197-.93 2.503-.93 3.96 0 1.458.304 2.764.93 3.96.627 1.197 1.48 2.154 2.562 2.851a6.493 6.493 0 0 0 3.587 1.044A6.558 6.558 0 0 0-.284 9.378c1.081-.697 1.916-1.654 2.542-2.851.626-1.196.93-2.502.93-3.96 0-1.457-.304-2.763-.93-3.96C1.632-2.589.797-3.525-.284-4.199" transform="translate(543.033 95.812)"/><path d="M0-.303c-.513.479-1.252.718-2.22.718h-2.771v-5.636h2.771c.968 0 1.707.24 2.22.696.513.457.759 1.154.759 2.089C.759-1.5.513-.782 0-.303m-2.087-7.464h-5.447V7.464h2.543V2.982h2.904c1.67 0 2.96-.478 3.89-1.458.911-.957 1.366-2.306 1.366-4.047 0-1.675-.455-2.959-1.366-3.873-.93-.914-2.22-1.371-3.89-1.371" transform="translate(567.121 98.552)"/><path d="M0 2.481h6.452V-.065H0v-3.764h7.193v-2.546h-9.736V8.856H7.42V6.31H0V2.481Z" transform="translate(586.065 97.16)"/><path d="M0 1.132h-2.999v-5.636H0c.968 0 1.688.24 2.201.696.513.457.759 1.154.759 2.089 0 .936-.246 1.654-.759 2.133C1.688.893.968 1.132 0 1.132m4.725.109c.436-.849.664-1.85.664-3.047 0-1.675-.474-2.959-1.404-3.873-.93-.914-2.259-1.37-3.985-1.37h-5.542v15.23h2.543V3.699H0c.209 0 .38 0 .474-.021l2.297 4.503h2.903L2.751 3.133a4.329 4.329 0 0 0 1.974-1.892" transform="translate(612.733 97.835)"/><path d="m0-34.988-10.435 28.44-10.338-28.44h-6.079L-13.498 0h5.84L5.887-34.988H0Z" transform="translate(224.081 75.056)"/><path d="M0 8.696 6.318-6.848l6.318 15.544H0Zm3.59-21.842L-11.2 21.842h5.887l3.207-7.898H14.79l3.207 7.898h6.031L9.381-13.146H3.59Z" transform="translate(240.212 53.214)"/><path d="M0-34.988h-5.648V0h20.151v-5.348H0v-29.64Z" transform="translate(275.536 75.056)"/><path d="M0 5.098h16.37V-.15H0v-9.497h18.285v-5.298H-5.648v34.988h24.507v-5.298H0V5.098Z" transform="translate(302.293 55.013)"/><path d="M0-.3C-1.388.9-3.398 1.499-6.031 1.499h-7.946v-13.845h7.946c2.633 0 4.643.55 6.031 1.699 1.388 1.15 2.106 2.85 2.106 5.099C2.106-3.199 1.388-1.45 0-.3m8.041 17.644L.527 5.648C2.776 4.749 4.5 3.349 5.696 1.4 6.893-.55 7.467-2.899 7.467-5.698c0-3.799-1.196-6.748-3.542-8.847-2.345-2.049-5.696-3.099-9.956-3.099h-13.593v34.988h5.647V6.798h7.946c.718 0 1.197 0 1.532-.051l6.127 10.597h6.413Z" transform="translate(348.867 57.712)"/><path d="M365.046 40.068h5.648v34.988h-5.648z"/><path d="M0-29.64h11.583v23.692c0 1.799-.431 3.149-1.244 4.098C9.525-.9 8.328-.401 6.797-.401 5.6-.401 4.404-.75 3.159-1.4 1.914-2.049.766-2.999-.335-4.249L-3.016.25c1.293 1.649 2.729 2.898 4.404 3.748 1.675.85 3.446 1.3 5.409 1.3 3.302 0 5.839-.949 7.706-2.899 1.867-1.95 2.776-4.649 2.776-8.147v-29.19H0v5.298Z" transform="translate(379.213 75.006)"/><path d="m0 11.796-11.584-23.392h-6.557v34.988h5.218V-2.849l11.104 22.592h3.59L12.78-2.849l.048 26.241h5.217v-34.988h-6.557L0 11.796Z" transform="translate(439.476 51.663)"/><path d="M0 24.392h-18.859v-9.647h16.37V9.497h-16.37V0H-.575v-5.298h-23.932V29.69H0v-5.298Z" transform="translate(492.03 45.366)"/><path d="M0 12.596c-1.005 1.849-2.394 3.298-4.164 4.348-1.772 1.05-3.686 1.55-5.84 1.55h-8.233V-5.898h7.994c2.154 0 4.164.5 5.935 1.549 1.771 1.05 3.207 2.55 4.26 4.399C.957 1.899 1.484 3.999 1.484 6.348S1.005 10.746 0 12.596M-1.197-8.947c-2.632-1.499-5.648-2.249-8.951-2.249h-13.737v34.988h13.594c3.35 0 6.366-.75 8.998-2.3 2.633-1.499 4.739-3.598 6.223-6.248 1.484-2.648 2.249-5.598 2.249-8.946 0-3.349-.717-6.348-2.202-8.997-1.483-2.649-3.541-4.748-6.174-6.248" transform="translate(524.006 51.264)"/><path d="m0-34.988-10.434 28.44-10.339-28.44h-6.079L-13.498 0h5.84L5.887-34.988H0Z" transform="translate(560.527 75.056)"/><path d="M572.159 40.068h5.648v34.988h-5.648z"/><path d="M0 21.292c-1.771 1.05-3.686 1.55-5.84 1.55h-8.232V-1.55h7.993c2.154 0 4.164.5 5.936 1.55 1.77 1.05 3.206 2.549 4.259 4.398 1.006 1.85 1.532 3.949 1.532 6.298s-.479 4.399-1.484 6.248C3.159 18.793 1.771 20.243 0 21.292m9.094-1.699c1.484-2.649 2.249-5.598 2.249-8.947 0-3.349-.717-6.348-2.201-8.997S5.6-3.099 2.967-4.599C.335-6.098-2.681-6.848-5.983-6.848H-19.72V28.14h13.593c3.351 0 6.366-.75 8.999-2.299 2.633-1.5 4.738-3.599 6.222-6.248" transform="translate(607.53 46.916)"/><path d="M167.24 5.697h3.141v134.908h-3.14z"/><path d="M0 64.128h18.377V0L0 25.084v39.044Z" transform="matrix(.61762 0 0 .61762 102.647 61.843)"/><path d="m0-168.506-10.675 14.626C-3.4-140.652.743-125.472.743-109.341c0 51.131-41.597 92.73-92.729 92.73-16.168 0-31.381-4.164-44.629-11.469v-74.363l-18.376-25.083v107.579a108.31 108.31 0 0 0 18.376 10.484C-122.756-3.263-107.623 0-91.986 0c29.207 0 56.664-11.374 77.316-32.025 20.651-20.652 32.025-48.109 32.025-77.316 0-21.308-6.06-41.682-17.355-59.165" transform="matrix(.61762 0 0 .61762 131.896 140.605)"/><path d="M0-159.277c24.941 0 47.609 9.901 64.291 25.976L13.95-64.418l-6.969 9.511-6.985 9.534-6.984-9.534-6.966-9.511-26.038-35.234h-23.001l24.636 33.021 1.623 2.213 29.321 40.022c.309.425.649.819 1.008 1.175.274.274.564.525.865.757 1.557 1.197 3.446 1.827 5.536 1.827 2.09 0 3.979-.63 5.54-1.827.297-.232.588-.483.865-.757a9.75 9.75 0 0 0 1.009-1.175l29.321-40.022 1.622-2.213 6.273-8.561 1.558-2.125 27.57-37.773 2.759-3.782 10.319-14.143a110.977 110.977 0 0 0-9.515-10.848 120.248 120.248 0 0 0-3.122-2.99C53.937-165.605 27.76-175.888 0-175.888c-22.889 0-44.7 6.988-63.004 19.949A108.822 108.822 0 0 0-71-149.704a112.281 112.281 0 0 0-6.316 5.841c-20.653 20.652-32.026 48.111-32.026 77.316 0 29.206 11.373 56.665 32.026 77.317A111.908 111.908 0 0 0-71 16.611V-6.973c-13.552-16.125-21.73-36.912-21.73-59.574 0-19.365 5.972-37.363 16.167-52.252A93.049 93.049 0 0 1-71-126.12a93.28 93.28 0 0 1 7.996-8.398C-46.454-149.87-24.307-159.277 0-159.277" transform="matrix(.61762 0 0 .61762 75.084 114.174)"/></svg>