<?xml version="1.0" standalone="no"?>
<!DOCTYPE svg PUBLIC "-//W3C//DTD SVG 20010904//EN"
 "http://www.w3.org/TR/2001/REC-SVG-20010904/DTD/svg10.dtd">
<svg version="1.0" xmlns="http://www.w3.org/2000/svg"
 width="600.000000pt" height="600.000000pt" viewBox="0 0 600.000000 600.000000"
 preserveAspectRatio="xMidYMid meet">
<metadata>
Created by potrace 1.14, written by Peter Selinger 2001-2017
</metadata>
<g transform="translate(0.000000,600.000000) scale(0.100000,-0.100000)"
fill="#000000" stroke="none">
<path d="M2755 5989 c-72 -7 -157 -16 -210 -24 -270 -37 -611 -146 -886 -283
-258 -130 -465 -273 -684 -472 -115 -105 -154 -145 -279 -290 -88 -102 -254
-338 -288 -410 -7 -14 -19 -36 -29 -50 -61 -93 -174 -350 -231 -525 -31 -98
-86 -309 -94 -365 -3 -19 -9 -57 -14 -85 -41 -229 -48 -593 -15 -870 23 -197
93 -480 167 -675 119 -315 313 -640 534 -895 78 -90 316 -327 322 -321 2 3 4
418 2 607 0 29 -12 52 -57 110 -177 230 -320 498 -409 769 -36 110 -90 333
-99 410 -3 25 -7 52 -10 60 -22 78 -21 483 1 625 4 22 6 47 6 55 0 8 4 31 8
50 5 19 12 55 15 79 15 102 84 332 142 476 31 75 134 282 170 338 135 216 235
343 409 514 255 251 567 449 899 571 101 37 235 77 288 88 21 4 127 26 137 29
3 1 32 5 65 9 33 4 71 10 85 12 41 7 210 17 285 17 88 0 315 -12 324 -17 3 -2
33 -7 66 -11 68 -7 63 -6 207 -40 108 -25 294 -81 313 -94 6 -4 28 -13 50 -20
127 -42 425 -209 567 -317 87 -66 248 -204 248 -212 -1 -4 -50 -74 -110 -157
-60 -82 -116 -159 -124 -170 -8 -11 -50 -68 -93 -126 -43 -59 -123 -169 -178
-244 -55 -75 -127 -174 -160 -219 -141 -191 -441 -602 -457 -626 -13 -19 -374
-512 -475 -649 -10 -13 -51 -69 -91 -124 l-74 -99 -31 45 c-36 51 -280 384
-622 847 -124 168 -274 371 -333 452 l-107 147 -313 0 c-199 1 -312 -3 -310
-9 2 -5 86 -121 188 -257 406 -545 567 -762 615 -828 28 -38 159 -218 292
-400 133 -181 249 -339 257 -350 225 -308 238 -320 366 -320 112 0 145 23 268
188 87 117 227 307 267 362 7 11 116 160 241 330 125 171 349 477 497 680 149
204 274 372 277 375 4 3 10 12 13 20 4 8 33 49 65 92 31 42 115 156 187 255
71 98 133 183 138 188 4 6 54 73 110 150 56 77 111 152 122 167 11 14 27 36
35 48 8 12 48 67 88 121 43 59 70 105 65 112 -33 57 -284 325 -399 427 -232
205 -538 394 -834 515 -150 62 -361 129 -475 151 -11 2 -31 6 -45 9 -60 13
-80 16 -170 30 -52 7 -115 17 -140 20 -63 10 -471 13 -555 4z"/>
<path d="M5376 4420 l-147 -200 39 -73 c100 -188 212 -520 236 -698 5 -35 14
-94 22 -139 5 -33 17 -241 17 -310 1 -70 -12 -286 -18 -302 -2 -7 -6 -37 -10
-67 -14 -132 -74 -366 -136 -530 -49 -128 -158 -348 -224 -451 -135 -210 -346
-452 -529 -605 -294 -248 -687 -442 -1066 -527 -25 -5 -55 -11 -67 -13 -12 -2
-34 -6 -50 -9 -27 -6 -47 -9 -128 -20 -83 -12 -194 -18 -320 -18 -156 0 -274
10 -439 38 -227 38 -462 116 -681 225 l-100 49 0 1023 -1 1022 -249 339 -250
340 -3 -1470 -3 -1469 31 -26 c51 -43 278 -175 411 -238 263 -125 587 -224
839 -257 25 -3 56 -7 70 -10 142 -25 685 -25 762 0 7 3 33 7 58 10 25 3 56 7
70 10 14 3 43 7 65 11 22 3 56 10 75 15 19 5 64 16 100 25 180 45 420 135 589
220 572 287 1037 748 1332 1320 36 72 83 173 104 225 20 52 41 104 46 115 17
39 81 254 94 315 2 8 10 44 18 80 8 36 18 87 22 114 3 27 8 52 9 55 4 6 12 74
26 216 8 86 6 494 -3 535 -4 14 -9 50 -12 80 -38 372 -191 820 -393 1155 -30
50 -55 91 -57 93 -2 2 -69 -87 -149 -198z"/>
<path d="M4621 3353 c-55 -76 -107 -147 -115 -158 -8 -11 -55 -74 -103 -140
-49 -66 -109 -149 -134 -185 l-45 -65 0 -530 1 -530 253 -3 252 -2 0 875 c0
481 -2 875 -4 875 -2 0 -50 -62 -105 -137z"/>
</g>
</svg>
